<svg width="24" height="24" viewBox="0 0 24 24" fill="none" xmlns="http://www.w3.org/2000/svg">
<mask id="mask0_632_81" style="mask-type:luminance" maskUnits="userSpaceOnUse" x="0" y="0" width="24" height="24">
<path d="M0 0H24V24H0V0Z" fill="white"/>
</mask>
<g mask="url(#mask0_632_81)">
<mask id="mask1_632_81" style="mask-type:luminance" maskUnits="userSpaceOnUse" x="0" y="0" width="24" height="24">
<path d="M0 0H24V23.51H0V0Z" fill="white"/>
</mask>
<g mask="url(#mask1_632_81)">
<path fill-rule="evenodd" clip-rule="evenodd" d="M11.964 0C5.348 0 0 5.388 0 12.053C0 17.381 3.427 21.891 8.18 23.487C8.775 23.607 8.993 23.228 8.993 22.909C8.993 22.629 8.973 21.672 8.973 20.674C5.645 21.392 4.953 19.237 4.953 19.237C4.417 17.84 3.625 17.481 3.625 17.481C2.535 16.743 3.705 16.743 3.705 16.743C4.912 16.823 5.546 17.98 5.546 17.98C6.616 19.816 8.339 19.297 9.033 18.978C9.132 18.199 9.449 17.661 9.785 17.361C7.131 17.081 4.338 16.044 4.338 11.414C4.338 10.097 4.813 9.02 5.566 8.182C5.447 7.882 5.031 6.645 5.686 4.989C5.686 4.989 6.696 4.669 8.973 6.226C9.948 5.962 10.954 5.828 11.964 5.826C12.974 5.826 14.004 5.966 14.955 6.226C17.233 4.669 18.243 4.989 18.243 4.989C18.897 6.645 18.481 7.883 18.363 8.182C19.135 9.02 19.59 10.097 19.59 11.414C19.59 16.044 16.798 17.062 14.123 17.361C14.559 17.741 14.935 18.459 14.935 19.596C14.935 21.213 14.915 22.51 14.915 22.909C14.915 23.229 15.134 23.607 15.728 23.488C18.1172 22.6787 20.1921 21.1396 21.6597 19.088C23.1274 17.0363 23.9138 14.5756 23.908 12.053C23.929 5.388 18.56 0 11.965 0H11.964Z" fill="#F8FAFC"/>
</g>
</g>
</svg>
