<svg width="24" height="24" viewBox="0 0 24 24" fill="none" xmlns="http://www.w3.org/2000/svg">
<mask id="mask0_632_67" style="mask-type:luminance" maskUnits="userSpaceOnUse" x="0" y="0" width="24" height="24">
<path d="M0 0H24V24H0V0Z" fill="white"/>
</mask>
<g mask="url(#mask0_632_67)">
<path fill-rule="evenodd" clip-rule="evenodd" d="M21.3349 24H2.66993C2.31969 24 1.97289 23.931 1.64931 23.797C1.32574 23.663 1.03173 23.4665 0.784076 23.2189C0.536422 22.9712 0.339972 22.6772 0.205943 22.3536C0.0719137 22.03 0.00292969 21.6832 0.00292969 21.333V2.667C0.00292964 1.95984 0.283779 1.28163 0.783722 0.7815C1.28367 0.281369 1.96177 0.000265152 2.66893 0L21.3349 0C21.6852 0 22.032 0.068984 22.3555 0.203013C22.6791 0.337043 22.9731 0.533492 23.2208 0.781146C23.4684 1.0288 23.6649 1.32281 23.7989 1.64638C23.9329 1.96996 24.0019 2.31676 24.0019 2.667V21.333C24.0019 21.6832 23.9329 22.03 23.7989 22.3536C23.6649 22.6772 23.4684 22.9712 23.2208 23.2189C22.9731 23.4665 22.6791 23.663 22.3555 23.797C22.032 23.931 21.6852 24 21.3349 24ZM17.1049 20.667H20.6669V13.35C20.6669 10.255 18.9119 8.758 16.4609 8.758C14.0089 8.758 12.9769 10.668 12.9769 10.668V9.11H9.54493V20.666H12.9769V14.6C12.9769 12.974 13.7249 12.007 15.1569 12.007C16.4739 12.007 17.1059 12.937 17.1059 14.6V20.666L17.1049 20.667ZM3.33493 5.466C3.33493 6.643 4.28193 7.598 5.45093 7.598C6.62093 7.598 7.56693 6.643 7.56693 5.466C7.56811 5.1869 7.51428 4.91031 7.40851 4.65203C7.30273 4.39375 7.1471 4.15885 6.95049 3.96076C6.75388 3.76266 6.52016 3.60526 6.26268 3.49755C6.00521 3.38983 5.72903 3.33392 5.44993 3.333C4.28093 3.333 3.33493 4.288 3.33493 5.466ZM7.25793 20.666H3.67793V9.112H7.25793V20.668V20.666Z" fill="#F8FAFC"/>
</g>
</svg>
